<svg width="265" height="283" viewBox="0 0 265 283" fill="none" xmlns="http://www.w3.org/2000/svg">
<path fill-rule="evenodd" clip-rule="evenodd" d="M198.798 93.3047L243.711 137.582C245.454 139.301 246.099 141.641 245.482 144.009C244.865 146.378 243.161 148.108 240.801 148.758L192.445 162.081L228.701 141.634L224.672 135.122C186.879 149.514 161.029 171.705 161.029 171.705C172.436 146.762 216.356 121.681 216.356 121.681L198.798 93.3047ZM246.687 158.366C236.787 158.893 184.024 163.021 144.996 192.198C144.996 192.198 204.654 172.741 257.336 179.288C258.547 179.438 259.668 178.889 260.289 177.837C260.909 176.785 260.85 175.539 260.131 174.55L249.27 159.598C248.655 158.753 247.733 158.311 246.687 158.366ZM151.425 213.988C151.425 213.988 142.786 225.518 132.5 225.518C122.214 225.518 113.575 213.988 113.575 213.988C78.6523 196.528 24.7649 201.499 6.39123 203.873C4.71696 204.089 3.19129 203.624 1.9248 202.51C0.656574 201.395 0 199.942 0 198.254V197.37C0 194.458 2.17533 192.041 5.07117 191.735C22.6051 189.886 81.5464 185.377 117.532 203.369C117.532 203.369 122.214 213.05 132.5 213.05C142.786 213.05 147.468 203.369 147.468 203.369C183.454 185.377 242.395 189.886 259.929 191.735C262.825 192.041 265 194.458 265 197.37V198.254C265 199.942 264.343 201.395 263.075 202.51C261.809 203.624 260.283 204.089 258.609 203.873C240.235 201.499 186.348 196.528 151.425 213.988ZM69.3112 93.3047L24.3981 137.582C22.6548 139.301 22.0103 141.641 22.6271 144.009C23.2439 146.378 24.9476 148.108 27.3078 148.758L75.6644 162.081L39.4078 141.634L43.437 135.122C44.3922 134.034 96.5789 145.555 127.755 166.904C128.101 166.732 128.187 166.386 128.187 166.386C108.778 146.911 47.6011 128.385 47.6011 128.385L69.3112 93.3047ZM120.005 192.198C80.9764 163.021 28.2138 158.893 18.3134 158.366C17.2681 158.311 16.3454 158.753 15.7303 159.598L4.86919 174.55C4.15041 175.539 4.09166 176.785 4.71195 177.837C5.33224 178.889 6.4536 179.438 7.66481 179.288C60.3462 172.741 120.005 192.198 120.005 192.198Z" fill="url(#paint0_linear_227_65)"/>
<path d="M134.966 90.5711C128.808 98.0228 126.027 98.4829 116.68 101.575C106.12 105.067 103.468 111.436 102.065 112.881C106.017 103.259 114.299 101.906 120.227 97.9371C114.969 100.082 112.156 101.085 107.715 104.043C108.937 101.882 117.206 97.6087 120.693 95.5461C129.539 90.3131 133.335 80.4669 134.434 70.2858C134.023 71.4874 133.681 72.5969 133.267 73.6783C126.833 90.5013 111.291 87.5992 102.175 104.595C102.064 104.801 101.873 104.965 101.714 105.146C103.049 96.1215 117.47 87.1762 118.095 86.73C115.074 88.0184 112.256 89.6516 109.671 91.7335C110.805 88.5346 118.483 85.099 121.917 82.9727C127.987 79.2148 132.106 72.7379 131.478 61.4266C131.363 59.3678 131.236 57.305 130.766 55.4541C130.08 61.2977 130.179 68.0411 121.616 72.9194C118.484 74.7039 117.007 75.3023 114.082 77.414C116.782 73.8973 124.268 71.5533 127.593 65.459C131.133 58.9709 130.568 53.1022 128.485 46.8347C127.68 53.6855 127.761 56.3365 125.239 60.6187C122.603 65.093 113.316 72.9098 112.752 73.0723C114.397 70.2312 118.422 66.2122 120.063 64.4207C134.639 48.5037 122.072 28.8605 108.845 24.0465C111.992 29.7919 113.008 31.0884 108.281 41.1942C100.839 57.1065 108.888 64.3763 105.622 76.4153C105.526 75.2966 106.622 71.4799 104.881 64.2684C102.32 53.6692 103.428 51.2941 105.697 44.4622C90.1083 64.269 100.761 74.2615 100.775 87.6739C100.776 88.8912 100.947 90.1356 100.531 91.3636C99.8595 90.7431 101.264 86.1578 97.5057 76.6654C94.8062 69.8452 92.9672 66.4385 95.4104 57.8926C94.7084 58.1456 92.4907 64.0007 91.7128 67.2897C88.6507 80.2452 96.1443 83.4529 97.7226 93.9543C96.8797 93.5493 97.4146 92.0177 93.4977 85.795C88.428 77.7413 88.529 75.6059 88.3091 70.7969C85.7885 82.6926 88.656 86.2372 92.8808 93.1652C95.0703 96.7553 96.0688 100.657 96.0575 102.895C95.3299 102.086 95.5651 100.077 93.2464 96.5028C88.1231 88.6055 87.4609 89.9718 85.9319 80.3047C85.7478 80.5301 85.7035 80.7706 85.6853 81.0131C85.4122 84.7306 84.0984 92.4486 87.4006 102.819C87.4919 103.105 87.5041 103.416 87.5441 103.718C86.2588 101.297 86.8562 102.733 85.0851 98.0888C83.3959 114.497 92.2955 114.983 93.3745 122.113L93.3084 122.09C92.9805 121.85 87.2778 115.596 85.6773 111.826C85.6407 112.105 85.6179 112.179 85.6226 112.251C86.5146 125.729 93.9253 129.153 100.436 139.062C105.115 146.185 118.412 159.183 126.739 166.227C127.078 166.227 127.209 166.105 127.189 165.719C126.917 165.411 101.546 143.077 102.745 129.696C103.289 123.624 107.819 116.832 116.168 113.436C117.291 112.98 118.427 112.555 119.557 112.116C117.903 112.211 116.229 112.182 114.598 112.436C105.765 113.811 103.281 119.563 101.125 124.319C101.085 124.082 101.046 124.003 101.064 123.939C107.508 102.229 124.319 116.103 134.966 90.5711ZM126.872 70.1013C124.623 73.4726 119.944 77.028 119.475 77.293C121.825 74.8501 125.415 72.1449 126.872 70.1013ZM112.577 57.9883C112.332 56.3087 112.087 54.6282 111.841 52.9485C112.685 54.5275 112.695 56.2465 112.577 57.9883ZM107.547 51.3528C107.505 51.0421 107.578 50.7158 107.599 50.3647C108.067 52.617 108.548 54.8048 108.971 57.0039C109.762 61.1124 109.572 64.9367 109.079 65.7072C109.087 58.9802 109.05 62.3879 107.547 51.3528ZM102.888 71.3744C101.032 63.0338 100.97 62.1478 101.27 60.6972C102.522 67.8488 102.067 64.742 103.209 69.5147C104.003 72.8371 104.771 78.7785 103.534 81.842C103.731 77.1956 103.961 76.1941 102.888 71.3744ZM92.4902 86.7643C92.4599 86.677 92.4296 86.5896 92.3992 86.5022C92.4356 86.5405 92.485 86.5906 92.5832 86.691C94.3424 89.3312 97.0086 92.0075 97.5991 96.6428C97.1822 96.2202 97.5309 95.3847 92.4902 86.7643ZM92.2569 113.601C94.1374 116.251 96.154 120.464 95.9858 122.624C95.644 122.267 94.3431 118.632 92.2569 113.601ZM101.468 136.554C101.463 136.539 101.458 136.526 101.453 136.51C99.0195 132.072 97.737 124.194 97.3736 118.904C95.6212 93.3663 109.958 78.7402 116.001 57.9979C119.11 47.3256 117.701 43.9901 118.536 43.1975C118.84 70.0745 103.259 80.522 99.3645 111.362C98.0816 121.52 99.2545 128.548 101.468 136.554Z" fill="url(#paint1_linear_227_65)"/>
<g clip-path="url(#clip0_227_65)">
<path d="M144.078 67.0346C144.097 66.9833 146.295 66.6053 146.295 66.6053C146.295 66.6053 144.097 66.2273 144.078 66.1761C144.059 66.1248 144.739 65.0691 144.739 65.0691L143.743 65.8042C143.697 65.7833 143.357 63.3408 143.357 63.3408C143.357 63.3408 143.016 65.7825 142.97 65.8042C142.924 65.825 141.973 65.0691 141.973 65.0691C141.973 65.0691 142.654 66.1257 142.635 66.1761C142.616 66.2273 140.418 66.6053 140.418 66.6053C140.418 66.6053 142.616 66.9833 142.635 67.0346C142.654 67.0858 141.973 68.1415 141.973 68.1415C141.973 68.1415 142.952 67.3986 142.97 67.4064C143.016 67.4273 143.356 69.8698 143.356 69.8698C143.356 69.8698 143.696 67.4273 143.742 67.4064C143.788 67.3856 144.739 68.1415 144.739 68.1415C144.739 68.1415 144.058 67.0858 144.078 67.0346Z" fill="#FE9633"/>
<path d="M143.368 66.4278L143.342 63.4414C143.277 63.9002 143.01 65.7866 142.97 65.8048C142.924 65.8257 141.973 65.0697 141.973 65.0697C141.973 65.0697 142.654 66.1263 142.635 66.1767C142.616 66.228 140.418 66.606 140.418 66.606C140.418 66.606 142.616 66.9839 142.635 67.0352C142.647 67.0674 142.384 67.494 142.186 67.8077L143.368 66.4278Z" fill="#FFDE4D"/>
</g>
<g clip-path="url(#clip1_227_65)">
<path d="M149.12 85.0925C149.164 84.99 154.293 84.2341 154.293 84.2341C154.293 84.2341 149.164 83.4781 149.12 83.3756C149.076 83.2731 150.663 81.1616 150.663 81.1616L148.339 82.6318C148.231 82.5901 147.437 77.7051 147.437 77.7051C147.437 77.7051 146.642 82.5883 146.534 82.6318C146.426 82.6735 144.209 81.1616 144.209 81.1616C144.209 81.1616 145.797 83.2748 145.753 83.3756C145.709 83.4781 140.58 84.2341 140.58 84.2341C140.58 84.2341 145.709 84.99 145.753 85.0925C145.797 85.1951 144.209 87.3065 144.209 87.3065C144.209 87.3065 146.494 85.8207 146.534 85.8363C146.642 85.878 147.436 90.7631 147.436 90.7631C147.436 90.7631 148.229 85.878 148.337 85.8363C148.445 85.7946 150.662 87.3065 150.662 87.3065C150.662 87.3065 149.074 85.1951 149.12 85.0925Z" fill="#FE9633"/>
<path d="M147.463 83.8782L147.403 77.9053C147.251 78.8228 146.627 82.5956 146.534 82.6321C146.426 82.6738 144.209 81.1619 144.209 81.1619C144.209 81.1619 145.797 83.2751 145.753 83.3759C145.709 83.4785 140.58 84.2344 140.58 84.2344C140.58 84.2344 145.709 84.9904 145.753 85.0929C145.781 85.1572 145.167 86.0105 144.706 86.6378L147.463 83.8782Z" fill="#FFDE4D"/>
</g>
<g clip-path="url(#clip2_227_65)">
<path d="M186.978 74.7192C187.028 74.6013 192.89 73.732 192.89 73.732C192.89 73.732 187.028 72.8626 186.978 72.7447C186.928 72.6268 188.743 70.1986 188.743 70.1986L186.086 71.8894C185.963 71.8414 185.056 66.2236 185.056 66.2236C185.056 66.2236 184.146 71.8394 184.023 71.8894C183.9 71.9373 181.367 70.1986 181.367 70.1986C181.367 70.1986 183.181 72.6288 183.131 72.7447C183.081 72.8626 177.219 73.732 177.219 73.732C177.219 73.732 183.081 74.6013 183.131 74.7192C183.181 74.8371 181.367 77.2653 181.367 77.2653C181.367 77.2653 183.977 75.5566 184.023 75.5746C184.146 75.6225 185.054 81.2403 185.054 81.2403C185.054 81.2403 185.961 75.6225 186.084 75.5746C186.207 75.5266 188.74 77.2653 188.74 77.2653C188.74 77.2653 186.926 74.8371 186.978 74.7192Z" fill="#FE9633"/>
<path d="M185.085 73.3219L185.016 66.4531C184.843 67.5083 184.13 71.8471 184.023 71.889C183.9 71.937 181.367 70.1983 181.367 70.1983C181.367 70.1983 183.181 72.6285 183.131 72.7444C183.081 72.8623 177.219 73.7316 177.219 73.7316C177.219 73.7316 183.081 74.601 183.131 74.7189C183.162 74.7928 182.461 75.7741 181.934 76.4955L185.085 73.3219Z" fill="#FFDE4D"/>
</g>
<g clip-path="url(#clip3_227_65)">
<path d="M171.676 89.5745C171.707 89.5028 175.371 88.9736 175.371 88.9736C175.371 88.9736 171.707 88.4444 171.676 88.3727C171.645 88.3009 172.779 86.8229 172.779 86.8229L171.118 87.852C171.041 87.8228 170.474 84.4033 170.474 84.4033C170.474 84.4033 169.906 87.8216 169.829 87.852C169.752 87.8812 168.169 86.8229 168.169 86.8229C168.169 86.8229 169.302 88.3021 169.271 88.3727C169.24 88.4444 165.576 88.9736 165.576 88.9736C165.576 88.9736 169.24 89.5028 169.271 89.5745C169.302 89.6463 168.169 91.1243 168.169 91.1243C168.169 91.1243 169.8 90.0843 169.829 90.0952C169.906 90.1244 170.473 93.5439 170.473 93.5439C170.473 93.5439 171.04 90.1244 171.117 90.0952C171.194 90.066 172.777 91.1243 172.777 91.1243C172.777 91.1243 171.643 89.6463 171.676 89.5745Z" fill="#FE9633"/>
<path d="M170.492 88.725L170.449 84.5439C170.341 85.1862 169.896 87.8272 169.829 87.8528C169.752 87.8819 168.169 86.8236 168.169 86.8236C168.169 86.8236 169.302 88.3028 169.271 88.3734C169.24 88.4452 165.576 88.9743 165.576 88.9743C165.576 88.9743 169.24 89.5035 169.271 89.5753C169.291 89.6203 168.853 90.2176 168.523 90.6567L170.492 88.725Z" fill="#FFDE4D"/>
</g>
<g clip-path="url(#clip4_227_65)">
<path d="M161.441 62.2904C161.462 62.2391 163.905 61.8612 163.905 61.8612C163.905 61.8612 161.462 61.4832 161.441 61.4319C161.421 61.3807 162.177 60.3249 162.177 60.3249L161.07 61.06C161.018 61.0392 160.64 58.5967 160.64 58.5967C160.64 58.5967 160.262 61.0383 160.21 61.06C160.159 61.0809 159.103 60.3249 159.103 60.3249C159.103 60.3249 159.859 61.3815 159.838 61.4319C159.818 61.4832 157.375 61.8612 157.375 61.8612C157.375 61.8612 159.818 62.2391 159.838 62.2904C159.859 62.3417 159.103 63.3974 159.103 63.3974C159.103 63.3974 160.191 62.6545 160.21 62.6623C160.262 62.6832 160.639 65.1257 160.639 65.1257C160.639 65.1257 161.017 62.6832 161.069 62.6623C161.12 62.6415 162.176 63.3974 162.176 63.3974C162.176 63.3974 161.42 62.3417 161.441 62.2904Z" fill="#FE9633"/>
<path d="M160.653 61.6827L160.624 58.6963C160.552 59.1551 160.255 61.0415 160.21 61.0597C160.159 61.0806 159.103 60.3246 159.103 60.3246C159.103 60.3246 159.859 61.3812 159.838 61.4316C159.818 61.4829 157.375 61.8609 157.375 61.8609C157.375 61.8609 159.818 62.2388 159.838 62.2901C159.851 62.3222 159.559 62.7489 159.34 63.0626L160.653 61.6827Z" fill="#FFDE4D"/>
</g>
<g clip-path="url(#clip5_227_65)">
<path d="M162.729 75.2873C162.739 75.2617 163.96 75.0727 163.96 75.0727C163.96 75.0727 162.739 74.8837 162.729 74.8581C162.718 74.8324 163.096 74.3046 163.096 74.3046L162.543 74.6721C162.517 74.6617 162.328 73.4404 162.328 73.4404C162.328 73.4404 162.139 74.6612 162.113 74.6721C162.087 74.6825 161.559 74.3046 161.559 74.3046C161.559 74.3046 161.937 74.8329 161.927 74.8581C161.917 74.8837 160.695 75.0727 160.695 75.0727C160.695 75.0727 161.917 75.2617 161.927 75.2873C161.937 75.3129 161.559 75.8408 161.559 75.8408C161.559 75.8408 162.103 75.4693 162.113 75.4732C162.139 75.4837 162.328 76.7049 162.328 76.7049C162.328 76.7049 162.517 75.4837 162.542 75.4732C162.568 75.4628 163.096 75.8408 163.096 75.8408C163.096 75.8408 162.718 75.3129 162.729 75.2873Z" fill="#FE9633"/>
<path d="M162.334 74.9835L162.32 73.4902C162.284 73.7196 162.135 74.6628 162.113 74.672C162.087 74.6824 161.559 74.3044 161.559 74.3044C161.559 74.3044 161.937 74.8327 161.927 74.8579C161.917 74.8835 160.695 75.0725 160.695 75.0725C160.695 75.0725 161.917 75.2615 161.927 75.2871C161.934 75.3032 161.788 75.5165 161.678 75.6734L162.334 74.9835Z" fill="#FFDE4D"/>
</g>
<g clip-path="url(#clip6_227_65)">
<path d="M187.805 101.042C187.815 101.017 189.036 100.828 189.036 100.828C189.036 100.828 187.815 100.639 187.805 100.613C187.794 100.587 188.172 100.059 188.172 100.059L187.619 100.427C187.593 100.417 187.404 99.1953 187.404 99.1953C187.404 99.1953 187.215 100.416 187.189 100.427C187.163 100.437 186.636 100.059 186.636 100.059C186.636 100.059 187.014 100.588 187.003 100.613C186.993 100.639 185.771 100.828 185.771 100.828C185.771 100.828 186.993 101.017 187.003 101.042C187.014 101.068 186.636 101.596 186.636 101.596C186.636 101.596 187.18 101.224 187.189 101.228C187.215 101.239 187.404 102.46 187.404 102.46C187.404 102.46 187.593 101.239 187.618 101.228C187.644 101.218 188.172 101.596 188.172 101.596C188.172 101.596 187.794 101.068 187.805 101.042Z" fill="#FE9633"/>
<path d="M187.41 100.738L187.396 99.2451C187.36 99.4745 187.211 100.418 187.189 100.427C187.163 100.437 186.636 100.059 186.636 100.059C186.636 100.059 187.014 100.588 187.003 100.613C186.993 100.638 185.771 100.827 185.771 100.827C185.771 100.827 186.993 101.016 187.003 101.042C187.01 101.058 186.864 101.271 186.754 101.428L187.41 100.738Z" fill="#FFDE4D"/>
</g>
<g clip-path="url(#clip7_227_65)">
<path d="M177.639 120.02C177.649 119.994 178.87 119.805 178.87 119.805C178.87 119.805 177.649 119.616 177.639 119.59C177.628 119.565 178.006 119.037 178.006 119.037L177.453 119.405C177.427 119.394 177.238 118.173 177.238 118.173C177.238 118.173 177.049 119.394 177.023 119.405C176.997 119.415 176.47 119.037 176.47 119.037C176.47 119.037 176.848 119.565 176.837 119.59C176.827 119.616 175.605 119.805 175.605 119.805C175.605 119.805 176.827 119.994 176.837 120.02C176.848 120.045 176.47 120.573 176.47 120.573C176.47 120.573 177.014 120.202 177.023 120.206C177.049 120.216 177.238 121.437 177.238 121.437C177.238 121.437 177.427 120.216 177.452 120.206C177.478 120.195 178.006 120.573 178.006 120.573C178.006 120.573 177.628 120.045 177.639 120.02Z" fill="#FE9633"/>
<path d="M177.244 119.716L177.23 118.223C177.194 118.452 177.045 119.395 177.023 119.404C176.997 119.415 176.47 119.037 176.47 119.037C176.47 119.037 176.848 119.565 176.837 119.59C176.827 119.616 175.605 119.805 175.605 119.805C175.605 119.805 176.827 119.994 176.837 120.02C176.844 120.036 176.698 120.249 176.588 120.406L177.244 119.716Z" fill="#FFDE4D"/>
</g>
<g clip-path="url(#clip8_227_65)">
<path d="M174.124 109.424L159.305 108.201L165.577 99.6979C165.617 99.6544 165.639 99.5974 165.639 99.5384C165.639 99.4793 165.617 99.4224 165.577 99.3789C165.533 99.3448 165.479 99.3263 165.424 99.3263C165.368 99.3263 165.315 99.3448 165.271 99.3789L156.784 105.412L154.909 91.7447L154.849 91.3074C154.844 91.2671 154.825 91.2296 154.795 91.2011C154.775 91.1711 154.747 91.1467 154.715 91.1301C154.682 91.1136 154.646 91.1055 154.61 91.1065C154.552 91.1062 154.496 91.1272 154.452 91.1655C154.409 91.2037 154.382 91.2564 154.376 91.3133L152.729 105.418L144.535 99.7688L144.254 99.5738C144.222 99.5515 144.185 99.5392 144.146 99.5384C144.099 99.5303 144.051 99.5365 144.008 99.5562C143.964 99.5759 143.928 99.6082 143.904 99.6487C143.88 99.6892 143.869 99.7359 143.873 99.7828C143.876 99.8296 143.894 99.8742 143.924 99.9106L150.004 107.799L135.221 109.572C135.162 109.577 135.107 109.605 135.067 109.649C135.027 109.692 135.006 109.749 135.006 109.808C135.006 109.867 135.029 109.924 135.07 109.967C135.111 110.01 135.168 110.035 135.227 110.038L150.327 111.403L144.32 120.16L144.128 120.438C144.105 120.466 144.092 120.502 144.092 120.538C144.086 120.576 144.09 120.614 144.102 120.65C144.115 120.686 144.136 120.719 144.164 120.745C144.208 120.782 144.264 120.802 144.323 120.802C144.381 120.802 144.437 120.782 144.481 120.745L152.693 113.926L154.376 129.514C154.38 129.56 154.399 129.604 154.429 129.64C154.459 129.676 154.499 129.702 154.545 129.715C154.59 129.728 154.638 129.727 154.683 129.712C154.728 129.697 154.767 129.669 154.795 129.632C154.826 129.599 154.845 129.558 154.849 129.514L154.909 128.923L156.43 114.05L164.936 120.29L165.265 120.532C165.298 120.557 165.338 120.572 165.379 120.574C165.416 120.58 165.453 120.577 165.489 120.566C165.524 120.554 165.556 120.535 165.583 120.509C165.62 120.465 165.641 120.409 165.641 120.352C165.641 120.295 165.62 120.239 165.583 120.196L158.988 111.787L173.591 109.956L174.112 109.891C174.154 109.888 174.194 109.871 174.225 109.843C174.258 109.824 174.284 109.796 174.301 109.762C174.318 109.729 174.325 109.691 174.321 109.654C174.322 109.599 174.302 109.545 174.266 109.503C174.23 109.46 174.179 109.432 174.124 109.424ZM152.783 106.032C152.818 106.054 152.858 106.068 152.899 106.071C152.94 106.074 152.982 106.066 153.019 106.049C153.057 106.032 153.09 106.006 153.114 105.973C153.139 105.94 153.155 105.901 153.16 105.861L154.61 93.4701L153.019 106.049L146.488 101.695L152.783 106.032ZM150.501 108.242C150.542 108.236 150.581 108.22 150.615 108.195C150.648 108.17 150.675 108.138 150.693 108.1C150.711 108.064 150.721 108.023 150.721 107.982C150.721 107.941 150.711 107.9 150.693 107.864L145.374 101.01L150.693 108.1L138.438 109.684L150.501 108.242ZM154.61 127.15V127.209L153.118 113.436C153.115 113.393 153.1 113.353 153.074 113.318C153.049 113.284 153.014 113.257 152.975 113.241C152.945 113.235 152.914 113.235 152.885 113.241C152.827 113.242 152.772 113.263 152.729 113.3L146.302 118.618L152.975 113.241L154.61 127.15ZM150.974 111.108L146.134 118.346L150.974 111.338C150.996 111.304 151.008 111.264 151.008 111.223C151.008 111.182 150.996 111.142 150.974 111.108C150.958 111.07 150.932 111.037 150.898 111.013C150.864 110.989 150.824 110.974 150.782 110.972L139.546 109.979L150.974 111.108ZM154.909 95.2427L156.365 105.879C156.369 105.92 156.384 105.959 156.408 105.993C156.433 106.026 156.467 106.053 156.505 106.069C156.544 106.085 156.586 106.091 156.628 106.086C156.67 106.08 156.709 106.064 156.742 106.038L163.594 101.151L156.505 106.069L154.909 95.2427ZM156.377 113.442C156.343 113.417 156.303 113.401 156.261 113.396C156.219 113.391 156.176 113.396 156.137 113.412C156.099 113.431 156.066 113.458 156.041 113.492C156.016 113.526 155.999 113.566 155.993 113.607L154.909 124.196L156.137 113.412L162.612 118.015L156.377 113.442ZM158.527 111.397C158.485 111.402 158.445 111.418 158.412 111.443C158.378 111.468 158.352 111.501 158.335 111.539C158.32 111.581 158.317 111.627 158.327 111.671C158.336 111.715 158.358 111.755 158.389 111.787L164.085 119.049L158.335 111.539L169.811 110.015L158.527 111.397ZM158.641 108.484L163.744 101.411L158.671 108.242C158.644 108.276 158.627 108.316 158.621 108.359C158.616 108.402 158.623 108.445 158.641 108.484C158.659 108.521 158.687 108.553 158.722 108.577C158.756 108.601 158.796 108.616 158.838 108.62L171.333 109.666L158.641 108.484Z" fill="#FE9633"/>
</g>
<path d="M10.1027 248.398C10.1027 246.606 10.0867 244.846 10.0547 243.118C10.0547 241.358 10.0707 239.582 10.1027 237.79C10.1027 237.278 10.1187 236.766 10.1507 236.254C10.1827 235.742 10.2787 235.294 10.4387 234.91C10.5987 234.494 10.8547 234.158 11.2067 233.902C11.5587 233.646 12.0867 233.518 12.7907 233.518C13.2387 233.518 13.5907 233.63 13.8467 233.854C14.1027 234.078 14.2947 234.366 14.4227 234.718C14.5507 235.038 14.6307 235.39 14.6627 235.774C14.6947 236.158 14.7107 236.526 14.7107 236.878V243.118L14.6627 255.502V261.742C14.6627 262.638 14.7267 263.246 14.8547 263.566C14.9827 263.886 15.1267 264.142 15.2867 264.334C15.4787 264.494 15.6387 264.686 15.7667 264.91C15.8947 265.102 15.9587 265.518 15.9587 266.158C15.9587 266.638 15.8627 267.15 15.6707 267.694C15.4787 268.206 15.0787 268.462 14.4707 268.462C12.8067 268.462 11.6547 268.014 11.0147 267.118C10.4067 266.222 10.1027 265.022 10.1027 263.518V248.398ZM29.8371 269.23C28.2691 269.23 26.9251 268.894 25.8051 268.222C24.6851 267.518 23.7731 266.622 23.0691 265.534C22.3971 264.446 21.9011 263.23 21.5811 261.886C21.2611 260.51 21.1011 259.15 21.1011 257.806C21.1011 255.726 21.2771 253.806 21.6291 252.046C21.9811 250.286 22.5091 248.75 23.2131 247.438C23.9171 246.126 24.8131 245.102 25.9011 244.366C27.0211 243.63 28.3171 243.262 29.7891 243.262C31.0051 243.262 32.0451 243.582 32.9091 244.222C33.8051 244.862 34.5571 245.678 35.1651 246.67C35.7731 247.63 36.2211 248.686 36.5091 249.838C36.7971 250.958 36.9411 252.014 36.9411 253.006C36.9411 253.166 36.9411 253.39 36.9411 253.678C36.9411 253.966 36.9251 254.19 36.8931 254.35C36.8611 254.734 36.5731 255.07 36.0291 255.358C35.4851 255.614 34.8131 255.854 34.0131 256.078C33.2451 256.302 32.4131 256.542 31.5171 256.798C30.6211 257.022 29.7891 257.31 29.0211 257.662C28.2531 258.014 27.6131 258.446 27.1011 258.958C26.5891 259.47 26.3331 260.11 26.3331 260.878C26.3331 261.294 26.4291 261.726 26.6211 262.174C26.8131 262.59 27.0531 262.974 27.3411 263.326C27.6611 263.678 28.0291 263.966 28.4451 264.19C28.8611 264.382 29.3091 264.478 29.7891 264.478C30.3651 264.478 30.8131 264.366 31.1331 264.142C31.4851 263.886 31.7731 263.582 31.9971 263.23C32.2531 262.878 32.4611 262.494 32.6211 262.078C32.7811 261.63 32.9411 261.23 33.1011 260.878C33.2931 260.526 33.5171 260.238 33.7731 260.014C34.0611 259.758 34.4291 259.63 34.8771 259.63C35.5811 259.63 36.1091 259.902 36.4611 260.446C36.8451 260.99 37.0371 261.582 37.0371 262.222C37.0371 263.054 36.8291 263.87 36.4131 264.67C36.0291 265.47 35.5971 266.19 35.1171 266.83C34.4771 267.662 33.6931 268.27 32.7651 268.654C31.8371 269.038 30.8611 269.23 29.8371 269.23ZM29.7891 248.11C29.4371 248.11 29.0851 248.222 28.7331 248.446C28.4131 248.67 28.1091 248.958 27.8211 249.31C27.5651 249.63 27.3571 249.998 27.1971 250.414C27.0371 250.83 26.9571 251.23 26.9571 251.614C26.9571 252.254 27.0851 252.654 27.3411 252.814C27.6291 252.974 27.9971 253.054 28.4451 253.054C28.7331 253.054 29.0691 253.022 29.4531 252.958C29.8691 252.862 30.2531 252.734 30.6051 252.574C30.9891 252.382 31.2931 252.158 31.5171 251.902C31.7731 251.614 31.9011 251.278 31.9011 250.894C31.9011 250.638 31.8531 250.35 31.7571 250.03C31.6931 249.71 31.5651 249.406 31.3731 249.118C31.2131 248.83 30.9891 248.59 30.7011 248.398C30.4451 248.206 30.1411 248.11 29.7891 248.11ZM42.5571 262.846C42.5571 261.502 42.8131 260.35 43.3251 259.39C43.8691 258.43 44.5251 257.598 45.2931 256.894C46.0611 256.19 46.9091 255.582 47.8371 255.07C48.7651 254.526 49.6131 254.014 50.3811 253.534C51.1491 253.022 51.7891 252.526 52.3011 252.046C52.8451 251.534 53.1171 250.942 53.1171 250.27C53.1171 249.63 52.8931 249.038 52.4451 248.494C51.9971 247.95 51.4531 247.678 50.8131 247.678C50.1411 247.678 49.5971 247.87 49.1811 248.254C48.7651 248.606 48.3971 249.022 48.0771 249.502C47.7891 249.95 47.5011 250.366 47.2131 250.75C46.9251 251.102 46.5731 251.278 46.1571 251.278C45.5171 251.278 44.9571 251.07 44.4771 250.654C43.9971 250.238 43.7571 249.71 43.7571 249.07C43.7571 248.238 43.9971 247.486 44.4771 246.814C44.9891 246.142 45.6291 245.55 46.3971 245.038C47.1651 244.526 47.9971 244.142 48.8931 243.886C49.7891 243.598 50.6211 243.454 51.3891 243.454C52.9251 243.454 54.1251 243.758 54.9891 244.366C55.8851 244.942 56.5571 245.71 57.0051 246.67C57.4851 247.63 57.7891 248.718 57.9171 249.934C58.0451 251.118 58.1091 252.334 58.1091 253.582V255.982L58.0131 260.638V263.038C58.0131 263.614 58.0291 264.238 58.0611 264.91C58.0931 265.582 58.0771 266.206 58.0131 266.782C57.9491 267.326 57.7891 267.79 57.5331 268.174C57.2771 268.558 56.8771 268.75 56.3331 268.75C55.7251 268.75 55.2611 268.638 54.9411 268.414C54.6211 268.19 54.3651 267.95 54.1731 267.694C54.0131 267.406 53.8851 267.15 53.7891 266.926C53.7251 266.702 53.5971 266.59 53.4051 266.59C53.2131 266.59 52.9571 266.702 52.6371 266.926C52.3491 267.15 51.9811 267.406 51.5331 267.694C51.1171 267.982 50.6211 268.238 50.0451 268.462C49.5011 268.686 48.8931 268.798 48.2211 268.798C47.3571 268.798 46.5731 268.638 45.8691 268.318C45.1651 267.966 44.5571 267.518 44.0451 266.974C43.5651 266.43 43.1971 265.806 42.9411 265.102C42.6851 264.366 42.5571 263.614 42.5571 262.846ZM47.1651 261.982C47.1651 262.782 47.4051 263.374 47.8851 263.758C48.3971 264.11 49.0211 264.286 49.7571 264.286C50.4931 264.286 51.0851 264.142 51.5331 263.854C52.0131 263.534 52.3811 263.118 52.6371 262.606C52.9251 262.094 53.1171 261.534 53.2131 260.926C53.3411 260.286 53.4051 259.662 53.4051 259.054C53.4051 258.606 53.3251 258.206 53.1651 257.854C53.0051 257.502 52.6531 257.326 52.1091 257.326C51.6291 257.326 51.1011 257.47 50.5251 257.758C49.9491 258.046 49.4051 258.43 48.8931 258.91C48.4131 259.358 47.9971 259.854 47.6451 260.398C47.3251 260.942 47.1651 261.47 47.1651 261.982ZM75.1112 246.094C75.1112 246.35 75.0792 246.686 75.0152 247.102C74.9832 247.518 74.7912 247.726 74.4392 247.726L74.0072 247.678C73.1112 247.678 72.3592 247.886 71.7512 248.302C71.1432 248.686 70.6472 249.198 70.2632 249.838C69.8792 250.478 69.6072 251.198 69.4472 251.998C69.2872 252.766 69.2072 253.534 69.2072 254.302V256.558L69.0632 261.838V264.142C69.0632 264.526 69.0632 264.974 69.0632 265.486C69.0952 265.998 69.0632 266.494 68.9672 266.974C68.8712 267.422 68.6792 267.822 68.3912 268.174C68.1032 268.494 67.6712 268.654 67.0952 268.654C66.1352 268.654 65.4312 268.414 64.9832 267.934C64.5352 267.454 64.3112 266.798 64.3112 265.966V261.358L64.3592 251.854V247.246C64.3592 246.894 64.3752 246.51 64.4072 246.094C64.4392 245.678 64.5192 245.294 64.6472 244.942C64.7752 244.59 64.9672 244.302 65.2232 244.078C65.5112 243.854 65.8952 243.742 66.3752 243.742C66.8232 243.742 67.2072 243.822 67.5272 243.982C67.8472 244.142 68.0392 244.462 68.1032 244.942C68.1672 245.39 68.2312 245.71 68.2952 245.902C68.3592 246.062 68.4392 246.142 68.5352 246.142C68.6312 246.142 68.7912 245.998 69.0152 245.71C69.2392 245.422 69.5272 245.102 69.8792 244.75C70.2632 244.398 70.6952 244.078 71.1752 243.79C71.6872 243.502 72.2792 243.358 72.9512 243.358C73.7192 243.358 74.2632 243.646 74.5832 244.222C74.9352 244.798 75.1112 245.422 75.1112 246.094ZM85.3809 265.582C85.3809 266.03 85.3809 266.43 85.3809 266.782C85.3809 267.134 85.3169 267.438 85.1889 267.694C85.0929 267.918 84.9169 268.094 84.6609 268.222C84.4049 268.35 84.0209 268.414 83.5089 268.414C82.8049 268.414 82.2609 268.286 81.8769 268.03C81.4929 267.774 81.2049 267.454 81.0129 267.07C80.8529 266.654 80.7569 266.206 80.7249 265.726C80.6929 265.246 80.6609 264.798 80.6289 264.382C80.6289 264.094 80.6129 263.534 80.5809 262.702C80.5809 261.838 80.5649 260.846 80.5329 259.726C80.5329 258.574 80.5329 257.358 80.5329 256.078C80.5329 254.798 80.5169 253.598 80.4849 252.478C80.4849 251.326 80.4849 250.334 80.4849 249.502C80.4849 248.638 80.4849 248.062 80.4849 247.774C80.4849 247.422 80.4849 247.022 80.4849 246.574C80.4849 246.094 80.5489 245.646 80.6769 245.23C80.8369 244.782 81.0769 244.414 81.3969 244.126C81.7169 243.838 82.1969 243.694 82.8369 243.694C83.4769 243.694 83.9249 243.806 84.1809 244.03C84.4369 244.222 84.6129 244.462 84.7089 244.75C84.8369 245.006 84.9329 245.246 84.9969 245.47C85.0609 245.662 85.2049 245.758 85.4289 245.758C85.6529 245.758 85.9089 245.646 86.1969 245.422C86.4849 245.166 86.8369 244.91 87.2529 244.654C87.6689 244.366 88.1649 244.11 88.7409 243.886C89.3489 243.63 90.0849 243.502 90.9489 243.502C92.3249 243.502 93.4449 243.774 94.3089 244.318C95.2049 244.862 95.8929 245.63 96.3729 246.622C96.8849 247.614 97.2369 248.814 97.4289 250.222C97.6209 251.598 97.7169 253.134 97.7169 254.83C97.7169 256.11 97.7169 257.454 97.7169 258.862C97.7169 260.27 97.7009 261.742 97.6689 263.278C97.6689 263.694 97.6689 264.206 97.6689 264.814C97.6689 265.39 97.6049 265.95 97.4769 266.494C97.3489 267.038 97.1249 267.502 96.8049 267.886C96.5169 268.27 96.0689 268.462 95.4609 268.462C94.7569 268.462 94.2289 268.238 93.8769 267.79C93.5569 267.31 93.3169 266.75 93.1569 266.11C93.0289 265.438 92.9649 264.75 92.9649 264.046C92.9649 263.342 92.9649 262.75 92.9649 262.27C92.9329 261.342 92.9009 260.414 92.8689 259.486C92.8689 258.526 92.8689 257.582 92.8689 256.654C92.8689 256.11 92.8529 255.39 92.8209 254.494C92.8209 253.566 92.7249 252.67 92.5329 251.806C92.3729 250.942 92.0849 250.206 91.6689 249.598C91.2529 248.958 90.6289 248.638 89.7969 248.638C88.1649 248.638 87.0129 249.31 86.3409 250.654C85.7009 251.966 85.3809 253.774 85.3809 256.078V265.582ZM130.623 237.118C132.127 237.118 133.407 237.342 134.463 237.79C135.519 238.238 136.383 238.798 137.055 239.47C137.759 240.11 138.271 240.814 138.591 241.582C138.911 242.318 139.071 243.006 139.071 243.646C139.071 244.19 138.943 244.654 138.687 245.038C138.463 245.39 138.127 245.566 137.679 245.566C136.879 245.566 136.255 245.358 135.807 244.942C135.359 244.526 134.927 244.078 134.511 243.598C134.127 243.118 133.679 242.67 133.167 242.254C132.655 241.838 131.935 241.63 131.007 241.63C130.911 241.63 130.671 241.646 130.287 241.678C129.935 241.71 129.567 241.79 129.183 241.918C128.799 242.046 128.447 242.238 128.127 242.494C127.839 242.75 127.695 243.086 127.695 243.502C127.695 244.462 128.031 245.374 128.703 246.238C129.407 247.102 130.175 247.934 131.007 248.734C131.839 249.502 132.591 250.238 133.263 250.942C133.967 251.614 134.319 252.254 134.319 252.862C134.319 253.47 133.935 254.11 133.167 254.782C132.399 255.422 131.551 256.126 130.623 256.894C129.695 257.63 128.847 258.446 128.079 259.342C127.311 260.238 126.927 261.246 126.927 262.366C126.927 263.39 127.295 264.126 128.031 264.574C128.767 264.99 129.647 265.198 130.671 265.198C131.599 265.198 132.431 264.846 133.167 264.142C133.935 263.406 134.655 262.606 135.327 261.742C135.999 260.878 136.639 260.094 137.247 259.39C137.855 258.654 138.463 258.286 139.071 258.286C139.551 258.286 139.903 258.478 140.127 258.862C140.383 259.246 140.511 259.742 140.511 260.35C140.511 261.15 140.303 262.078 139.887 263.134C139.471 264.158 138.831 265.134 137.967 266.062C137.135 266.958 136.079 267.726 134.799 268.366C133.551 269.006 132.063 269.326 130.335 269.326C129.247 269.326 128.143 269.198 127.023 268.942C125.935 268.686 124.943 268.286 124.047 267.742C123.151 267.166 122.415 266.43 121.839 265.534C121.295 264.606 121.023 263.502 121.023 262.222C121.023 260.814 121.407 259.63 122.175 258.67C122.975 257.678 123.839 256.846 124.767 256.174C125.695 255.47 126.543 254.862 127.311 254.35C128.111 253.806 128.511 253.294 128.511 252.814C128.511 252.334 128.175 251.822 127.503 251.278C126.863 250.734 126.143 250.094 125.343 249.358C124.543 248.622 123.807 247.758 123.135 246.766C122.495 245.742 122.175 244.526 122.175 243.118C122.175 241.902 122.479 240.91 123.087 240.142C123.695 239.374 124.431 238.766 125.295 238.318C126.159 237.87 127.071 237.566 128.031 237.406C129.023 237.214 129.887 237.118 130.623 237.118ZM151.323 265.582C151.323 266.03 151.323 266.43 151.323 266.782C151.323 267.134 151.259 267.438 151.131 267.694C151.035 267.918 150.859 268.094 150.603 268.222C150.347 268.35 149.963 268.414 149.451 268.414C148.747 268.414 148.203 268.286 147.819 268.03C147.435 267.774 147.147 267.454 146.955 267.07C146.795 266.654 146.699 266.206 146.667 265.726C146.635 265.246 146.603 264.798 146.571 264.382C146.571 264.094 146.555 263.534 146.523 262.702C146.523 261.838 146.507 260.846 146.475 259.726C146.475 258.574 146.475 257.358 146.475 256.078C146.475 254.798 146.459 253.598 146.427 252.478C146.427 251.326 146.427 250.334 146.427 249.502C146.427 248.638 146.427 248.062 146.427 247.774C146.427 247.422 146.427 247.022 146.427 246.574C146.427 246.094 146.491 245.646 146.619 245.23C146.779 244.782 147.019 244.414 147.339 244.126C147.659 243.838 148.139 243.694 148.779 243.694C149.419 243.694 149.867 243.806 150.123 244.03C150.379 244.222 150.555 244.462 150.651 244.75C150.779 245.006 150.875 245.246 150.939 245.47C151.003 245.662 151.147 245.758 151.371 245.758C151.595 245.758 151.851 245.646 152.139 245.422C152.427 245.166 152.779 244.91 153.195 244.654C153.611 244.366 154.107 244.11 154.683 243.886C155.291 243.63 156.027 243.502 156.891 243.502C158.267 243.502 159.387 243.774 160.251 244.318C161.147 244.862 161.835 245.63 162.315 246.622C162.827 247.614 163.179 248.814 163.371 250.222C163.563 251.598 163.659 253.134 163.659 254.83C163.659 256.11 163.659 257.454 163.659 258.862C163.659 260.27 163.643 261.742 163.611 263.278C163.611 263.694 163.611 264.206 163.611 264.814C163.611 265.39 163.547 265.95 163.419 266.494C163.291 267.038 163.067 267.502 162.747 267.886C162.459 268.27 162.011 268.462 161.403 268.462C160.699 268.462 160.171 268.238 159.819 267.79C159.499 267.31 159.259 266.75 159.099 266.11C158.971 265.438 158.907 264.75 158.907 264.046C158.907 263.342 158.907 262.75 158.907 262.27C158.875 261.342 158.843 260.414 158.811 259.486C158.811 258.526 158.811 257.582 158.811 256.654C158.811 256.11 158.795 255.39 158.763 254.494C158.763 253.566 158.667 252.67 158.475 251.806C158.315 250.942 158.027 250.206 157.611 249.598C157.195 248.958 156.571 248.638 155.739 248.638C154.107 248.638 152.955 249.31 152.283 250.654C151.643 251.966 151.323 253.774 151.323 256.078V265.582ZM178.072 243.502C179.192 243.502 180.056 243.63 180.664 243.886C181.304 244.142 181.8 244.43 182.152 244.75C182.504 245.07 182.744 245.358 182.872 245.614C183.032 245.87 183.192 245.998 183.352 245.998C183.512 245.998 183.608 245.886 183.64 245.662C183.704 245.406 183.784 245.134 183.88 244.846C184.008 244.526 184.216 244.254 184.504 244.03C184.824 243.774 185.304 243.646 185.944 243.646C186.52 243.646 186.952 244.03 187.24 244.798C187.528 245.534 187.736 246.398 187.864 247.39C187.992 248.382 188.056 249.374 188.056 250.366C188.088 251.326 188.104 252.03 188.104 252.478V264.046C188.104 266.35 188.04 268.59 187.912 270.766C187.784 272.974 187.432 274.926 186.856 276.622C186.312 278.35 185.448 279.726 184.264 280.75C183.112 281.774 181.48 282.286 179.368 282.286C178.28 282.286 177.32 282.062 176.488 281.614C175.656 281.166 174.952 280.574 174.376 279.838C173.8 279.102 173.352 278.254 173.032 277.294C172.744 276.366 172.6 275.406 172.6 274.414C172.6 274.126 172.632 273.822 172.696 273.502C172.792 273.214 172.904 272.942 173.032 272.686C173.192 272.43 173.4 272.206 173.656 272.014C173.912 271.854 174.2 271.774 174.52 271.774C175.128 271.774 175.592 271.822 175.912 271.918C176.264 272.046 176.52 272.238 176.68 272.494C176.872 272.782 176.984 273.118 177.016 273.502C177.08 273.918 177.112 274.414 177.112 274.99C177.112 275.662 177.288 276.334 177.64 277.006C178.024 277.71 178.616 278.062 179.416 278.062C180.504 278.062 181.32 277.678 181.864 276.91C182.44 276.142 182.84 275.23 183.064 274.174C183.32 273.15 183.448 272.094 183.448 271.006C183.48 269.95 183.496 269.102 183.496 268.462C183.496 268.238 183.448 267.95 183.352 267.598C183.288 267.246 183.144 267.07 182.92 267.07C182.792 267.07 182.584 267.198 182.296 267.454C182.04 267.678 181.704 267.934 181.288 268.222C180.904 268.478 180.44 268.718 179.896 268.942C179.352 269.198 178.712 269.326 177.976 269.326C176.216 269.326 174.792 268.942 173.704 268.174C172.616 267.374 171.752 266.35 171.112 265.102C170.504 263.854 170.088 262.446 169.864 260.878C169.64 259.278 169.528 257.662 169.528 256.03C169.528 254.398 169.688 252.83 170.008 251.326C170.328 249.822 170.84 248.494 171.544 247.342C172.248 246.19 173.128 245.262 174.184 244.558C175.272 243.854 176.568 243.502 178.072 243.502ZM178.312 264.766C179.112 264.766 179.816 264.462 180.424 263.854C181.032 263.246 181.544 262.51 181.96 261.646C182.376 260.782 182.68 259.886 182.872 258.958C183.096 258.03 183.208 257.246 183.208 256.606L183.256 255.79C183.256 255.118 183.176 254.382 183.016 253.582C182.856 252.75 182.6 251.966 182.248 251.23C181.896 250.494 181.432 249.886 180.856 249.406C180.28 248.894 179.576 248.638 178.744 248.638C177.944 248.638 177.256 248.878 176.68 249.358C176.136 249.806 175.672 250.414 175.288 251.182C174.936 251.918 174.664 252.766 174.472 253.726C174.312 254.686 174.232 255.662 174.232 256.654C174.232 257.646 174.296 258.638 174.424 259.63C174.584 260.59 174.824 261.454 175.144 262.222C175.464 262.99 175.88 263.614 176.392 264.094C176.904 264.542 177.544 264.766 178.312 264.766ZM194.522 248.398C194.522 246.606 194.506 244.846 194.474 243.118C194.474 241.358 194.49 239.582 194.522 237.79C194.522 237.278 194.538 236.766 194.57 236.254C194.602 235.742 194.698 235.294 194.858 234.91C195.018 234.494 195.274 234.158 195.626 233.902C195.978 233.646 196.506 233.518 197.21 233.518C197.658 233.518 198.01 233.63 198.266 233.854C198.522 234.078 198.714 234.366 198.842 234.718C198.97 235.038 199.05 235.39 199.082 235.774C199.114 236.158 199.13 236.526 199.13 236.878V243.118L199.082 255.502V261.742C199.082 262.638 199.146 263.246 199.274 263.566C199.402 263.886 199.546 264.142 199.706 264.334C199.898 264.494 200.058 264.686 200.186 264.91C200.314 265.102 200.378 265.518 200.378 266.158C200.378 266.638 200.282 267.15 200.09 267.694C199.898 268.206 199.498 268.462 198.89 268.462C197.226 268.462 196.074 268.014 195.434 267.118C194.826 266.222 194.522 265.022 194.522 263.518V248.398ZM206 237.838C206 237.038 206.256 236.318 206.768 235.678C207.28 235.038 207.968 234.718 208.832 234.718C209.664 234.718 210.336 235.038 210.848 235.678C211.392 236.318 211.664 237.038 211.664 237.838C211.664 238.638 211.392 239.358 210.848 239.998C210.336 240.606 209.664 240.91 208.832 240.91C208 240.91 207.312 240.606 206.768 239.998C206.256 239.358 206 238.638 206 237.838ZM209.216 268.414C208.512 268.414 207.968 268.238 207.584 267.886C207.2 267.502 206.912 267.054 206.72 266.542C206.56 265.998 206.464 265.438 206.432 264.862C206.4 264.286 206.368 263.79 206.336 263.374C206.304 262.958 206.272 262.158 206.24 260.974C206.24 259.758 206.224 258.414 206.192 256.942C206.192 255.47 206.192 253.982 206.192 252.478C206.192 250.974 206.192 249.726 206.192 248.734C206.192 248.222 206.208 247.678 206.24 247.102C206.272 246.526 206.368 245.998 206.528 245.518C206.72 245.006 206.992 244.59 207.344 244.27C207.696 243.95 208.192 243.79 208.832 243.79C209.76 243.79 210.384 243.998 210.704 244.414C211.024 244.83 211.184 245.502 211.184 246.43V250.702L211.136 260.254V264.526C211.136 264.878 211.12 265.278 211.088 265.726C211.088 266.174 211.024 266.606 210.896 267.022C210.8 267.406 210.608 267.742 210.32 268.03C210.064 268.286 209.696 268.414 209.216 268.414ZM225.101 243.118C225.997 243.118 226.829 243.246 227.597 243.502C228.397 243.726 229.085 244.046 229.661 244.462C230.269 244.878 230.733 245.358 231.053 245.902C231.405 246.446 231.581 247.022 231.581 247.63C231.581 248.046 231.405 248.462 231.053 248.878C230.701 249.262 230.301 249.454 229.853 249.454C229.597 249.454 229.357 249.358 229.133 249.166C228.941 248.942 228.701 248.718 228.413 248.494C228.125 248.238 227.773 248.014 227.357 247.822C226.941 247.63 226.365 247.534 225.629 247.534C224.445 247.534 223.645 247.79 223.229 248.302C222.845 248.814 222.653 249.294 222.653 249.742C222.653 250.35 222.893 250.878 223.373 251.326C223.885 251.742 224.509 252.158 225.245 252.574C225.981 252.99 226.781 253.438 227.645 253.918C228.509 254.366 229.309 254.926 230.045 255.598C230.781 256.238 231.389 257.022 231.869 257.95C232.381 258.846 232.637 259.966 232.637 261.31C232.637 262.334 232.461 263.326 232.109 264.286C231.789 265.246 231.293 266.11 230.621 266.878C229.949 267.614 229.117 268.206 228.125 268.654C227.133 269.102 225.981 269.326 224.669 269.326C223.677 269.326 222.717 269.15 221.789 268.798C220.861 268.446 220.045 267.998 219.341 267.454C218.637 266.91 218.077 266.302 217.661 265.63C217.245 264.926 217.037 264.238 217.037 263.566C217.037 263.086 217.213 262.59 217.565 262.078C217.949 261.566 218.413 261.31 218.957 261.31C219.245 261.31 219.565 261.486 219.917 261.838C220.269 262.158 220.669 262.526 221.117 262.942C221.597 263.358 222.125 263.742 222.701 264.094C223.309 264.414 223.981 264.574 224.717 264.574C225.613 264.574 226.349 264.286 226.925 263.71C227.533 263.102 227.837 262.414 227.837 261.646C227.837 260.91 227.581 260.318 227.069 259.87C226.557 259.39 225.917 258.958 225.149 258.574C224.381 258.158 223.549 257.742 222.653 257.326C221.757 256.91 220.925 256.414 220.157 255.838C219.389 255.262 218.749 254.558 218.237 253.726C217.725 252.862 217.469 251.806 217.469 250.558C217.469 249.534 217.645 248.574 217.997 247.678C218.381 246.75 218.893 245.95 219.533 245.278C220.205 244.606 221.005 244.078 221.933 243.694C222.893 243.31 223.949 243.118 225.101 243.118ZM247.073 248.638C246.081 248.638 245.297 248.958 244.721 249.598C244.177 250.238 243.761 251.022 243.473 251.95C243.185 252.846 243.009 253.79 242.945 254.782C242.881 255.774 242.849 256.622 242.849 257.326L242.945 260.926V262.654C242.945 263.166 242.961 263.758 242.993 264.43C243.025 265.102 242.977 265.742 242.849 266.35C242.721 266.926 242.481 267.422 242.129 267.838C241.777 268.222 241.217 268.414 240.449 268.414C239.809 268.414 239.329 268.174 239.009 267.694C238.689 267.182 238.465 266.606 238.337 265.966C238.241 265.294 238.193 264.622 238.193 263.95C238.193 263.246 238.193 262.686 238.193 262.27C238.161 261.406 238.129 260.158 238.097 258.526C238.065 256.894 238.033 255.198 238.001 253.438C237.969 251.646 237.937 249.934 237.905 248.302C237.905 246.67 237.905 245.422 237.905 244.558C237.905 243.63 237.905 242.702 237.905 241.774C237.937 240.846 237.969 239.918 238.001 238.99C238.001 238.478 238.017 237.918 238.049 237.31C238.081 236.67 238.177 236.078 238.337 235.534C238.497 234.958 238.753 234.478 239.105 234.094C239.457 233.71 239.985 233.518 240.689 233.518C241.297 233.518 241.745 233.678 242.033 233.998C242.321 234.318 242.513 234.718 242.609 235.198C242.737 235.678 242.801 236.19 242.801 236.734C242.801 237.278 242.801 237.758 242.801 238.174C242.801 238.43 242.785 238.958 242.753 239.758C242.721 240.526 242.705 241.342 242.705 242.206C242.705 243.038 242.753 243.79 242.849 244.462C242.945 245.134 243.121 245.47 243.377 245.47C243.601 245.47 243.841 245.374 244.097 245.182C244.385 244.958 244.721 244.734 245.105 244.51C245.489 244.254 245.937 244.03 246.449 243.838C246.961 243.614 247.569 243.502 248.273 243.502C249.777 243.502 250.961 243.95 251.825 244.846C252.689 245.742 253.345 246.862 253.793 248.206C254.241 249.518 254.529 250.942 254.657 252.478C254.785 254.014 254.849 255.406 254.849 256.654V258.286L254.945 261.598V263.278C254.945 263.694 254.929 264.206 254.897 264.814C254.897 265.39 254.817 265.966 254.657 266.542C254.529 267.086 254.289 267.55 253.937 267.934C253.617 268.318 253.153 268.51 252.545 268.51C251.841 268.51 251.329 268.286 251.009 267.838C250.689 267.358 250.465 266.782 250.337 266.11C250.241 265.438 250.193 264.75 250.193 264.046C250.225 263.342 250.241 262.75 250.241 262.27C250.209 261.342 250.177 260.414 250.145 259.486C250.145 258.526 250.145 257.582 250.145 256.654C250.145 256.11 250.129 255.39 250.097 254.494C250.097 253.566 250.001 252.67 249.809 251.806C249.649 250.942 249.361 250.206 248.945 249.598C248.529 248.958 247.905 248.638 247.073 248.638Z" fill="#FE9633"/>
<defs>
<linearGradient id="paint0_linear_227_65" x1="165.5" y1="67.5" x2="76" y2="197.5" gradientUnits="userSpaceOnUse">
<stop stop-color="#FFDE4D"/>
<stop offset="1" stop-color="#FE9633"/>
</linearGradient>
<linearGradient id="paint1_linear_227_65" x1="148" y1="83" x2="71.506" y2="107.073" gradientUnits="userSpaceOnUse">
<stop stop-color="#FFDE4D"/>
<stop offset="1" stop-color="#FE9633"/>
</linearGradient>
<clipPath id="clip0_227_65">
<rect width="6.09974" height="6.77749" fill="white" transform="translate(140.295 63.209)"/>
</clipPath>
<clipPath id="clip1_227_65">
<rect width="14.2327" height="13.555" fill="white" transform="translate(140.295 77.4414)"/>
</clipPath>
<clipPath id="clip2_227_65">
<rect width="16.266" height="15.5882" fill="white" transform="translate(176.893 65.9199)"/>
</clipPath>
<clipPath id="clip3_227_65">
<rect width="10.1662" height="9.48849" fill="white" transform="translate(165.371 84.2188)"/>
</clipPath>
<clipPath id="clip4_227_65">
<rect width="6.77749" height="6.77749" fill="white" transform="translate(157.238 58.4648)"/>
</clipPath>
<clipPath id="clip5_227_65">
<rect width="3.38875" height="3.38875" fill="white" transform="translate(160.627 73.375)"/>
</clipPath>
<clipPath id="clip6_227_65">
<rect width="3.38875" height="3.38875" fill="white" transform="translate(185.703 99.1289)"/>
</clipPath>
<clipPath id="clip7_227_65">
<rect width="3.38875" height="3.38875" fill="white" transform="translate(175.537 118.106)"/>
</clipPath>
<clipPath id="clip8_227_65">
<rect width="39.3095" height="38.6317" fill="white" transform="translate(136.227 90.9961)"/>
</clipPath>
</defs>
</svg>
